# xmcd
#
# Track frame offsets: 
#        150
#        10721
#        28860
#        43394
#        59933
#        76323
#        92784
#        109805
#        121804
#        133894
#        148668
#        165453
#        183314
#        200189
#
# Disc length: 2891 seconds
#
# Revision: 1
# Processed by: cddbd v1.5.2PL0 Copyright (c) Steve Scherf et al.
# Submitted via: ExactAudioCopyFreeDBPlugin 1.0
#
DISCID=cf0b490e
DTITLE=Robert Bonfiglio - LOVE ME TENDER
DYEAR=1993
DGENRE=Blues
TTITLE0=Love Me Tender
TTITLE1=Secret Love
TTITLE2=And I Love Her
TTITLE3=Never My Love
TTITLE4=When I Fall In Love
TTITLE5=Will You Still Love Me Tomorrow
TTITLE6=Falling In Love
TTITLE7=True Love
TTITLE8=To Know His Is To Love Him
TTITLE9=P.S. I Love You
TTITLE10=Love Story
TTITLE11=What Now My Love
TTITLE12=My Funny Valentine
TTITLE13=My Love
EXTD=
EXTT0=
EXTT1=
EXTT2=
EXTT3=
EXTT4=
EXTT5=
EXTT6=
EXTT7=
EXTT8=
EXTT9=
EXTT10=
EXTT11=
EXTT12=
EXTT13=
PLAYORDER=
